<svg width="60" height="60" viewBox="0 0 60 60" fill="none" xmlns="http://www.w3.org/2000/svg">
<path d="M15.7494 12.5H52.5L47.5 30H18.4418M50 40H20L15 7.5H7.5M22.5 50C22.5 51.3807 21.3807 52.5 20 52.5C18.6193 52.5 17.5 51.3807 17.5 50C17.5 48.6193 18.6193 47.5 20 47.5C21.3807 47.5 22.5 48.6193 22.5 50ZM50 50C50 51.3807 48.8807 52.5 47.5 52.5C46.1193 52.5 45 51.3807 45 50C45 48.6193 46.1193 47.5 47.5 47.5C48.8807 47.5 50 48.6193 50 50Z" stroke="black" stroke-width="5" stroke-linecap="round" stroke-linejoin="round"/>
</svg>
